<?xml version="1.0" encoding="UTF-8" standalone="no"?>
<!-- Created with Inkscape (http://www.inkscape.org/) -->

<svg
   xmlns:dc="http://purl.org/dc/elements/1.1/"
   xmlns:cc="http://creativecommons.org/ns#"
   xmlns:rdf="http://www.w3.org/1999/02/22-rdf-syntax-ns#"
   xmlns:svg="http://www.w3.org/2000/svg"
   xmlns="http://www.w3.org/2000/svg"
   xmlns:sodipodi="http://sodipodi.sourceforge.net/DTD/sodipodi-0.dtd"
   xmlns:inkscape="http://www.inkscape.org/namespaces/inkscape"
   width="128"
   height="128"
   viewBox="0 0 33.866666 33.866667"
   version="1.1"
   id="svg4755"
   inkscape:version="0.92.3 (2405546, 2018-03-11)"
   sodipodi:docname="brain-green.svg"
   inkscape:export-filename="C:\Users\tom\Documents\GitHub\ZombieDice\Originals\brain-green.png"
   inkscape:export-xdpi="96"
   inkscape:export-ydpi="96">
  <defs
     id="defs4749">
    <clipPath
       id="clipPath4157"
       clipPathUnits="userSpaceOnUse">
      <path
         inkscape:connector-curvature="0"
         id="path4155"
         d="m 318.521,420.247 h 39.359 v 40.697 h -39.359 z" />
    </clipPath>
  </defs>
  <sodipodi:namedview
     id="base"
     pagecolor="#ffffff"
     bordercolor="#666666"
     borderopacity="1.0"
     inkscape:pageopacity="0.0"
     inkscape:pageshadow="2"
     inkscape:zoom="2.8"
     inkscape:cx="-31.041206"
     inkscape:cy="59.495671"
     inkscape:document-units="mm"
     inkscape:current-layer="layer1"
     showgrid="false"
     fit-margin-top="0"
     fit-margin-left="0"
     fit-margin-right="0"
     fit-margin-bottom="0"
     units="px"
     inkscape:window-width="1920"
     inkscape:window-height="1137"
     inkscape:window-x="1912"
     inkscape:window-y="-8"
     inkscape:window-maximized="1" />
  <metadata
     id="metadata4752">
    <rdf:RDF>
      <cc:Work
         rdf:about="">
        <dc:format>image/svg+xml</dc:format>
        <dc:type
           rdf:resource="http://purl.org/dc/dcmitype/StillImage" />
        <dc:title></dc:title>
      </cc:Work>
    </rdf:RDF>
  </metadata>
  <g
     inkscape:label="Layer 1"
     inkscape:groupmode="layer"
     id="layer1"
     transform="translate(-54.177107,-73.086688)">
    <g
       clip-path="url(#clipPath4157)"
       id="g4153"
       transform="matrix(0.85764077,0,0,-0.85764077,-220.50759,473.21542)"
       style="fill:#689c2b;fill-opacity:1">
      <g
         transform="translate(350.6362,440.9395)"
         id="g4159"
         style="fill:#689c2b;fill-opacity:1">
        <path
           inkscape:connector-curvature="0"
           id="path4161"
           style="fill:#689c2b;fill-opacity:1;fill-rule:evenodd;stroke:none"
           d="m 0,0 c 0.207,-2.002 -0.66,-2.927 -1.825,-3.553 -0.334,-0.178 -0.75,-0.6 -1.269,-0.186 -0.469,0.374 0.267,0.929 0.547,1.284 0.654,0.822 1.887,1.063 1.395,3.031 -1.496,1.782 -6.136,-1.583 -9.355,4.525 -3.2,0.351 -4.423,-3.498 -4.876,-3.925 -0.306,-0.288 -1.96,-0.987 -2.473,-0.024 -0.336,1.488 1.965,0.408 2.016,1.44 0.036,0.751 -2.009,0.873 -3.153,1.169 -0.609,0.158 -1.657,-0.154 -1.743,0.559 -0.087,0.711 1.036,0.901 1.652,0.852 1.179,-0.094 2.55,-1.05 3.82,-0.852 1.641,0.256 2.005,2.371 4.031,1.728 -0.514,1.581 -2.237,1.87 -1.439,2.88 1.52,1.924 3.008,-5.165 5.76,-6.048 3.298,-1.058 3.728,-0.175 4.685,-0.113 1.415,2.943 -4.087,2.918 -3.533,6.737 -2.895,1.389 -5.878,3.244 -9.751,2.601 -2.169,-0.359 -3.246,-3.753 -6.575,-3.331 -1.596,0.202 -3.052,0.385 -2.97,1.306 0.085,0.95 1.433,-0.048 2.312,-0.167 1.062,-0.143 2.107,-0.059 2.873,0.455 -0.14,0.982 -0.591,1.582 -1.295,2.001 -0.561,0.333 -1.973,0.57 -1.955,1.245 0.026,0.977 1.447,0.618 2.187,0.161 0.854,-0.529 1.681,-1.571 2.214,-1.967 1.651,1.272 4.652,2.135 7.487,1.152 0.448,1.983 -1.312,2.263 -1.804,2.765 -0.492,0.501 -1.112,1.622 0.077,1.843 0.558,0.103 0.335,-0.63 0.908,-1.327 0.65,-0.79 2.111,-0.234 1.972,-2.993 1.019,-1.093 2.982,-1.242 4.032,-2.304 0.587,0.084 1.246,-0.127 1.534,0.738 0.281,0.844 -0.547,1.405 -0.643,2.261 -0.118,1.053 0.297,1.988 1.125,1.609 0.452,-0.208 0.046,-0.802 -0.026,-1.55 C -4.112,13.444 -3.341,12.684 -3.422,11.5 -3.476,10.691 -4.696,9.445 -4.188,8.1 -3.806,7.087 -2.15,6.698 -1.546,6.017 -0.941,5.335 -0.948,3.851 -1.152,2.304 -0.817,2.351 -0.64,2.241 -0.574,2.016 1.382,2.307 2.186,3.681 2.081,5.269 1.999,6.524 1.309,8.211 0.58,8.922 0.035,9.453 -0.738,9.68 -0.373,10.426 0.035,11.255 0.987,10.331 1.488,9.606 2.09,8.737 3.137,7.465 3.178,5.92 3.243,3.46 2.061,0.696 0,0 M 5.803,-1.118 C 5.972,0.346 6.843,1.106 7.243,2.338 7.027,3.596 6.773,4.792 6.544,6.126 6.693,7.07 7.106,7.434 6.24,9.524 c -0.865,2.091 -1.736,2.115 -2.108,2.293 -0.082,0.577 -0.315,1.695 -1.139,2.54 -0.824,0.846 -2.304,1.699 -3.062,1.793 -0.261,0.624 -0.744,1.208 -2.678,2.134 -1.934,0.926 -2.65,0.657 -3.833,0.758 -0.886,0.344 -1.331,0.872 -2.994,0.954 -1.549,0.075 -2.19,-0.367 -3.048,-0.514 -0.644,0.147 -2.396,0.292 -3.523,0.067 -1.101,-0.22 -2.637,-0.893 -3.128,-1.369 -1.05,-0.132 -2.288,-0.41 -3.24,-0.903 -1.228,-0.634 -2.15,-1.757 -3.076,-2.555 -0.659,-1.55 -1.362,-3.054 -2.591,-4.032 -1.009,-6.161 0.498,-10.34 6.623,-10.08 1.32,-2.519 4.957,-3.938 8.929,-2.881 0.511,-0.832 1.342,-1.346 2.304,-1.727 0.064,-6.59 10.857,-4.673 12.96,-0.288 0.712,0.278 -0.398,1.106 0,2.015 1.479,-0.038 1.75,1.13 3.167,1.153" />
      </g>
    </g>
  </g>
</svg>
