<?xml version="1.0" encoding="UTF-8" standalone="no"?>
<!-- Created with Inkscape (http://www.inkscape.org/) -->

<svg
   xmlns:dc="http://purl.org/dc/elements/1.1/"
   xmlns:cc="http://creativecommons.org/ns#"
   xmlns:rdf="http://www.w3.org/1999/02/22-rdf-syntax-ns#"
   xmlns:svg="http://www.w3.org/2000/svg"
   xmlns="http://www.w3.org/2000/svg"
   xmlns:sodipodi="http://sodipodi.sourceforge.net/DTD/sodipodi-0.dtd"
   xmlns:inkscape="http://www.inkscape.org/namespaces/inkscape"
   width="128"
   height="128"
   viewBox="0 0 33.866666 33.866667"
   version="1.1"
   id="svg4755"
   inkscape:version="0.92.3 (2405546, 2018-03-11)"
   sodipodi:docname="footprints-red.svg"
   inkscape:export-filename="C:\Users\tom\Documents\GitHub\ZombieDice\Originals\footprints-red.png"
   inkscape:export-xdpi="96"
   inkscape:export-ydpi="96">
  <defs
     id="defs4749">
    <clipPath
       id="clipPath4157"
       clipPathUnits="userSpaceOnUse">
      <path
         inkscape:connector-curvature="0"
         id="path4155"
         d="m 318.521,420.247 h 39.359 v 40.697 h -39.359 z" />
    </clipPath>
    <clipPath
       id="clipPath4205"
       clipPathUnits="userSpaceOnUse">
      <path
         inkscape:connector-curvature="0"
         id="path4203"
         d="m 321.051,315.879 h 39.359 v 37.696 h -39.359 z" />
    </clipPath>
  </defs>
  <sodipodi:namedview
     id="base"
     pagecolor="#ffffff"
     bordercolor="#666666"
     borderopacity="1.0"
     inkscape:pageopacity="0.0"
     inkscape:pageshadow="2"
     inkscape:zoom="2.8"
     inkscape:cx="-75.148349"
     inkscape:cy="59.495671"
     inkscape:document-units="mm"
     inkscape:current-layer="layer1"
     showgrid="false"
     fit-margin-top="0"
     fit-margin-left="0"
     fit-margin-right="0"
     fit-margin-bottom="0"
     units="px"
     inkscape:window-width="1920"
     inkscape:window-height="1137"
     inkscape:window-x="1912"
     inkscape:window-y="-8"
     inkscape:window-maximized="1" />
  <metadata
     id="metadata4752">
    <rdf:RDF>
      <cc:Work
         rdf:about="">
        <dc:format>image/svg+xml</dc:format>
        <dc:type
           rdf:resource="http://purl.org/dc/dcmitype/StillImage" />
        <dc:title></dc:title>
      </cc:Work>
    </rdf:RDF>
  </metadata>
  <g
     inkscape:label="Layer 1"
     inkscape:groupmode="layer"
     id="layer1"
     transform="translate(-54.177107,-73.086688)">
    <g
       id="g4199"
       transform="matrix(0.83370424,0,0,-0.83370424,-215.14628,367.94868)"
       style="fill:#982021;fill-opacity:1">
      <g
         id="g4201"
         clip-path="url(#clipPath4205)"
         style="fill:#982021;fill-opacity:1">
        <g
           id="g4207"
           transform="translate(327.76,349.3482)"
           style="fill:#982021;fill-opacity:1">
          <path
             d="m 0,0 c 1.181,2.545 4.525,1.236 6.049,0.576 3.157,-1.368 5.275,-5.513 6.335,-8.353 0,0 -3.084,-1.921 -3.178,-1.997 C 5.756,-7.748 -1.18,-2.545 0,0"
             style="fill:#982021;fill-opacity:1;fill-rule:evenodd;stroke:none"
             id="path4209"
             inkscape:connector-curvature="0" />
        </g>
        <g
           id="g4211"
           transform="translate(337.5522,338.4042)"
           style="fill:#982021;fill-opacity:1">
          <path
             d="M 0,0 3.457,2.304 C 8.843,-0.659 1.573,-6.7 0,0"
             style="fill:#982021;fill-opacity:1;fill-rule:evenodd;stroke:none"
             id="path4213"
             inkscape:connector-curvature="0" />
        </g>
        <g
           id="g4215"
           transform="translate(333.2514,333.1158)"
           style="fill:#982021;fill-opacity:1">
          <path
             d="m 0,0 c 3.117,-1.348 4.853,-6.218 6.155,-9.364 -0.134,-0.171 -2.121,-2.871 -2.304,-3.169 -3.339,2.322 -7.329,4.228 -7.974,9.241 -0.12,0.941 -0.214,2.45 0.375,3.076 C -3.157,0.409 -1.118,0.482 0,0"
             style="fill:#982021;fill-opacity:1;fill-rule:evenodd;stroke:none"
             id="path4217"
             inkscape:connector-curvature="0" />
        </g>
        <g
           id="g4219"
           transform="translate(337.9413,320.1186)"
           style="fill:#982021;fill-opacity:1">
          <path
             d="M 0,0 C 0.019,0.143 2.212,2.731 2.294,2.755 3.825,2.225 6.373,1.531 5.381,-0.682 4.275,-3.157 1.638,-1.787 0,0"
             style="fill:#982021;fill-opacity:1;fill-rule:evenodd;stroke:none"
             id="path4221"
             inkscape:connector-curvature="0" />
        </g>
        <g
           id="g4223"
           transform="translate(348.6311,333.5082)"
           style="fill:#982021;fill-opacity:1">
          <path
             d="m 0,0 c 1.995,1.974 4.671,-0.419 5.871,-1.567 2.482,-2.383 3.024,-7.006 3.028,-10.037 0,0 -3.56,-0.728 -3.675,-0.766 C 2.695,-9.269 -1.995,-1.975 0,0"
             style="fill:#982021;fill-opacity:1;fill-rule:evenodd;stroke:none"
             id="path4225"
             inkscape:connector-curvature="0" />
        </g>
        <g
           id="g4227"
           transform="translate(353.9984,319.8378)"
           style="fill:#982021;fill-opacity:1">
          <path
             d="M 0,0 4.04,0.955 C 8.058,-3.7 -0.86,-6.827 0,0"
             style="fill:#982021;fill-opacity:1;fill-rule:evenodd;stroke:none"
             id="path4229"
             inkscape:connector-curvature="0" />
        </g>
      </g>
    </g>
  </g>
</svg>
