<?xml version="1.0" encoding="UTF-8" standalone="no"?>
<!-- Created with Inkscape (http://www.inkscape.org/) -->

<svg
   xmlns:dc="http://purl.org/dc/elements/1.1/"
   xmlns:cc="http://creativecommons.org/ns#"
   xmlns:rdf="http://www.w3.org/1999/02/22-rdf-syntax-ns#"
   xmlns:svg="http://www.w3.org/2000/svg"
   xmlns="http://www.w3.org/2000/svg"
   xmlns:sodipodi="http://sodipodi.sourceforge.net/DTD/sodipodi-0.dtd"
   xmlns:inkscape="http://www.inkscape.org/namespaces/inkscape"
   width="128"
   height="128"
   viewBox="0 0 33.866666 33.866667"
   version="1.1"
   id="svg4755"
   inkscape:version="0.92.3 (2405546, 2018-03-11)"
   sodipodi:docname="shotgun-green.svg"
   inkscape:export-filename="C:\Users\tom\Documents\GitHub\ZombieDice\Originals\shotgun-green.png"
   inkscape:export-xdpi="96"
   inkscape:export-ydpi="96">
  <defs
     id="defs4749">
    <clipPath
       id="clipPath4157"
       clipPathUnits="userSpaceOnUse">
      <path
         inkscape:connector-curvature="0"
         id="path4155"
         d="m 318.521,420.247 h 39.359 v 40.697 h -39.359 z" />
    </clipPath>
    <clipPath
       id="clipPath4169"
       clipPathUnits="userSpaceOnUse">
      <path
         inkscape:connector-curvature="0"
         id="path4167"
         d="m 323.408,363.575 h 39.359 v 46.426 h -39.359 z" />
    </clipPath>
  </defs>
  <sodipodi:namedview
     id="base"
     pagecolor="#ffffff"
     bordercolor="#666666"
     borderopacity="1.0"
     inkscape:pageopacity="0.0"
     inkscape:pageshadow="2"
     inkscape:zoom="4"
     inkscape:cx="75.308017"
     inkscape:cy="70.864815"
     inkscape:document-units="mm"
     inkscape:current-layer="layer1"
     showgrid="false"
     fit-margin-top="0"
     fit-margin-left="0"
     fit-margin-right="0"
     fit-margin-bottom="0"
     units="px"
     inkscape:window-width="1920"
     inkscape:window-height="1137"
     inkscape:window-x="1912"
     inkscape:window-y="-8"
     inkscape:window-maximized="1" />
  <metadata
     id="metadata4752">
    <rdf:RDF>
      <cc:Work
         rdf:about="">
        <dc:format>image/svg+xml</dc:format>
        <dc:type
           rdf:resource="http://purl.org/dc/dcmitype/StillImage" />
        <dc:title></dc:title>
      </cc:Work>
    </rdf:RDF>
  </metadata>
  <g
     inkscape:label="Layer 1"
     inkscape:groupmode="layer"
     id="layer1"
     transform="translate(-54.177107,-73.086688)">
    <g
       id="g4163"
       transform="matrix(0.81324014,0,0,-0.81324014,-205.95072,407.42472)"
       style="fill:#689c2b;fill-opacity:1">
      <g
         id="g4165"
         clip-path="url(#clipPath4169)"
         style="fill:#689c2b;fill-opacity:1">
        <g
           id="g4171"
           transform="translate(334.351,393.3199)"
           style="fill:#689c2b;fill-opacity:1">
          <path
             d="m 0,0 -3.456,-2.304 c 0,0 2.956,-1.462 4.321,-2.304 -0.784,-1.809 -1.621,-3.564 -2.304,-5.472 2.271,1.088 4.259,2.461 6.335,3.744 1.008,-1.393 2.879,-4.32 2.879,-4.32 0,0 1.604,2.046 2.594,2.88 1.816,-0.967 5.76,-2.592 5.76,-2.592 L 13.824,-4.896 17.28,-1.728 13.248,0 13.536,3.744 8.64,0.288 5.761,4.032 c 0,0 -1.077,-1.804 -1.729,-2.592 -1.707,0.693 -4.607,2.592 -4.607,2.592 z M 23.617,14.112 C 21.489,10.48 17.28,3.168 17.28,3.168 l 6.337,-5.472 -4.033,-3.168 3.744,-14.687 -9.504,6.911 -5.472,-5.759 -4.32,8.063 -13.248,-8.063 5.76,12.095 -7.487,5.184 6.623,3.744 c 0,0 -4.13,7.773 -6.336,11.52 3.411,-1.007 10.944,-5.76 10.944,-5.76 L 5.761,12.96 10.08,6.336 c 0,0 8.829,5.38 13.537,7.776"
             style="fill:#689c2b;fill-opacity:1;fill-rule:evenodd;stroke:none"
             id="path4173"
             inkscape:connector-curvature="0" />
        </g>
        <g
           id="g4175"
           transform="translate(345.5412,403.848)"
           style="fill:#689c2b;fill-opacity:1">
          <path
             d="M 0,0 1.771,2.721 2.02,1.011 0.042,-2.176"
             style="fill:#689c2b;fill-opacity:1;fill-rule:evenodd;stroke:none"
             id="path4177"
             inkscape:connector-curvature="0" />
        </g>
        <g
           id="g4179"
           transform="translate(324.2717,399.3679)"
           style="fill:#689c2b;fill-opacity:1">
          <path
             d="M 0,0 3.168,-2.88 H 1.152"
             style="fill:#689c2b;fill-opacity:1;fill-rule:evenodd;stroke:none"
             id="path4181"
             inkscape:connector-curvature="0" />
        </g>
        <g
           id="g4183"
           transform="translate(355.9509,397.9276)"
           style="fill:#689c2b;fill-opacity:1">
          <path
             d="m 0,0 v -2.592 l -2.304,1.44"
             style="fill:#689c2b;fill-opacity:1;fill-rule:evenodd;stroke:none"
             id="path4185"
             inkscape:connector-curvature="0" />
        </g>
        <g
           id="g4187"
           transform="translate(325.999,386.1199)"
           style="fill:#689c2b;fill-opacity:1">
          <path
             d="M 0,0 2.304,-0.576 -0.287,-2.304"
             style="fill:#689c2b;fill-opacity:1;fill-rule:evenodd;stroke:none"
             id="path4189"
             inkscape:connector-curvature="0" />
        </g>
        <g
           id="g4191"
           transform="translate(347.8873,377.7674)"
           style="fill:#689c2b;fill-opacity:1">
          <path
             d="M 0,0 2.592,-2.879 H 0.288"
             style="fill:#689c2b;fill-opacity:1;fill-rule:evenodd;stroke:none"
             id="path4193"
             inkscape:connector-curvature="0" />
        </g>
        <g
           id="g4195"
           transform="translate(334.0721,376.8902)"
           style="fill:#689c2b;fill-opacity:1">
          <path
             d="M 0,0 1.719,0.877 1.366,-1.363 -0.873,-2.867"
             style="fill:#689c2b;fill-opacity:1;fill-rule:evenodd;stroke:none"
             id="path4197"
             inkscape:connector-curvature="0" />
        </g>
      </g>
    </g>
  </g>
</svg>
