<svg xmlns="http://www.w3.org/2000/svg" xmlns:xlink="http://www.w3.org/1999/xlink" xmlns:lucid="lucid" width="1760" height="1360"><g transform="translate(0 0)" lucid:page-tab-id="0_0"><path d="M0 0h1760v1360H0z" fill="#fff"/><path d="M1120 390h160v120h-160z" stroke="#000" stroke-width="2" fill="#fff"/><use xlink:href="#a" transform="matrix(1,0,0,1,1125,395) translate(35.4 58.6)"/><use xlink:href="#b" transform="matrix(1,0,0,1,1125,395) translate(78.35 58.6)"/><path d="M780 640h160v120H780z" stroke="#000" stroke-width="2" fill="#fff"/><use xlink:href="#c" transform="matrix(1,0,0,1,785,645) translate(31.625 37)"/><use xlink:href="#d" transform="matrix(1,0,0,1,785,645) translate(67.475 37)"/><use xlink:href="#e" transform="matrix(1,0,0,1,785,645) translate(82.475 37)"/><use xlink:href="#f" transform="matrix(1,0,0,1,785,645) translate(2.0250000000000057 58.6)"/><use xlink:href="#g" transform="matrix(1,0,0,1,785,645) translate(39.97500000000001 58.6)"/><use xlink:href="#h" transform="matrix(1,0,0,1,785,645) translate(117.97500000000001 58.6)"/><use xlink:href="#i" transform="matrix(1,0,0,1,785,645) translate(23.599999999999994 80.20000000000002)"/><use xlink:href="#j" transform="matrix(1,0,0,1,785,645) translate(77.5 80.20000000000002)"/><path d="M860 798l80 60-80 60-80-60z" stroke="#000" stroke-width="2" fill="#fff"/><use xlink:href="#k" transform="matrix(1,0,0,1,785,803.0000000000001) translate(26 58.6)"/><use xlink:href="#l" transform="matrix(1,0,0,1,785,803.0000000000001) translate(41 58.6)"/><path d="M860 761v17.5" stroke="#000" stroke-width="2" fill="none"/><path d="M861 761h-2v-1h2zM860 793.5l-4.64-14.25h9.28z"/><path d="M860 796.75l-6-18.5h12zm-3.26-16.5l3.26 10.03 3.26-10.03z"/><path d="M1440 808h160v100h-160z" stroke="#000" stroke-width="2" fill="#fff"/><use xlink:href="#m" transform="matrix(1,0,0,1,1445,813.0000000000001) translate(38.375 48.6)"/><use xlink:href="#b" transform="matrix(1,0,0,1,1445,813.0000000000001) translate(75.375 48.6)"/><path d="M1140 798h160v120h-160z" stroke="#000" stroke-width="2" fill="#fff"/><use xlink:href="#n" transform="matrix(1,0,0,1,1145,803.0000000000001) translate(24.574999999999996 47.8)"/><use xlink:href="#o" transform="matrix(1,0,0,1,1145,803.0000000000001) translate(80.475 47.8)"/><use xlink:href="#p" transform="matrix(1,0,0,1,1145,803.0000000000001) translate(43.525 69.4)"/><use xlink:href="#q" transform="matrix(1,0,0,1,1145,803.0000000000001) translate(58.525 69.4)"/><path d="M1025.66 859h-84v-2h84zm95.1 0H1055v-2h65.76z"/><path d="M941.67 859h-3l1.33-1-1.33-1h3zM1135.76 858l-14.26 4.64v-9.28z"/><path d="M1139 858l-18.5 6v-12zm-16.5 3.26l10.03-3.26-10.03-3.26z"/><use xlink:href="#r" transform="matrix(1,0,0,1,1025.6583335,847.2000000000002) translate(0 14.4)"/><path d="M860 1218l80 60-80 60-80-60z" stroke="#000" stroke-width="2" fill="#fff"/><use xlink:href="#s" transform="matrix(1,0,0,1,785,1223) translate(19.099999999999994 58.6)"/><use xlink:href="#t" transform="matrix(1,0,0,1,785,1223) translate(66.1 58.6)"/><path d="M778.33 1278H260V799.52" stroke="#000" stroke-width="2" fill="none"/><path d="M780 1278l1.33 1h-3v-2h3zM264.64 798.78h-9.28l4.64-14.26z"/><path d="M266 799.78h-12l6-18.5zm-9.26-2h6.52L260 787.75z"/><use xlink:href="#r" transform="matrix(1,0,0,1,241.75806559973017,1281.0356518390577) translate(0 14.4)"/><path d="M1028.86 1279h-87.2v-2h87.2zm91.9 0h-68.95v-2h68.96z"/><path d="M941.67 1279h-3l1.33-1-1.33-1h3zM1135.76 1278l-14.26 4.64v-9.28z"/><path d="M1139 1278l-18.5 6v-12zm-16.5 3.26l10.03-3.26-10.03-3.26z"/><use xlink:href="#u" transform="matrix(1,0,0,1,1028.8583335,1267.2) translate(0 14.4)"/><path d="M1140 1218h160v120h-160z" stroke="#000" stroke-width="2" fill="#fff"/><use xlink:href="#v" transform="matrix(1,0,0,1,1145,1223) translate(22.049999999999997 47.8)"/><use xlink:href="#i" transform="matrix(1,0,0,1,1145,1223) translate(59.05 47.8)"/><use xlink:href="#w" transform="matrix(1,0,0,1,1145,1223) translate(112.95 47.8)"/><use xlink:href="#x" transform="matrix(1,0,0,1,1145,1223) translate(26.074999999999996 69.4)"/><use xlink:href="#y" transform="matrix(1,0,0,1,1145,1223) translate(79.975 69.4)"/><path d="M860 998l90 70-90 70-90-70z" stroke="#000" stroke-width="2" fill="#fff"/><use xlink:href="#z" transform="matrix(1,0,0,1,775,1003) translate(51.05 47)"/><use xlink:href="#A" transform="matrix(1,0,0,1,775,1003) translate(70.05 47)"/><use xlink:href="#B" transform="matrix(1,0,0,1,775,1003) translate(6.8500000000000085 68.60000000000001)"/><use xlink:href="#C" transform="matrix(1,0,0,1,775,1003) translate(55.80000000000001 68.60000000000001)"/><use xlink:href="#D" transform="matrix(1,0,0,1,775,1003) translate(71.30000000000001 68.60000000000001)"/><use xlink:href="#E" transform="matrix(1,0,0,1,775,1003) translate(132.2 68.60000000000001)"/><use xlink:href="#F" transform="matrix(1,0,0,1,775,1003) translate(57 90.20000000000002)"/><use xlink:href="#G" transform="matrix(1,0,0,1,775,1003) translate(83 90.20000000000002)"/><path d="M861 978.5h-2v-9.7h2zm0-31.3h-2v-27.95h2zM861 919.25h-2v-2l1 .75 1-.75zM860 993.5l-4.64-14.27h9.28z"/><path d="M860 996.73l-6-18.5h12zm-3.26-16.5l3.26 10.03 3.26-10.03z"/><use xlink:href="#u" transform="matrix(1,0,0,1,848.525,947.1915690000001) translate(0 14.4)"/><path d="M861 1198.5h-2v-9.7h2zm0-31.3h-2v-27.93h2zM861 1139.27h-2v-2.05l1 .78 1-.78zM860 1213.5l-4.64-14.25h9.28z"/><path d="M860 1216.75l-6-18.5h12zm-3.26-16.5l3.26 10.03 3.26-10.03z"/><use xlink:href="#u" transform="matrix(1,0,0,1,848.525,1167.208431) translate(0 14.4)"/><path d="M1023.84 1069h-72.2v-2h72.2zm76.92 0h-53.97v-2h53.96zM951.63 1069h-2.92l1.3-1-1.3-1h2.93zM1115.76 1068l-14.26 4.64v-9.28z"/><path d="M1119 1068l-18.5 6v-12zm-16.5 3.26l10.03-3.26-10.03-3.26z"/><use xlink:href="#u" transform="matrix(1,0,0,1,1023.8393964019909,1057.2) translate(0 14.4)"/><path d="M260 620l100 80-100 80-100-80z" stroke="#000" stroke-width="2" fill="#fff"/><use xlink:href="#n" transform="matrix(1,0,0,1,165,625) translate(22.549999999999997 67.8)"/><use xlink:href="#H" transform="matrix(1,0,0,1,165,625) translate(78.45 67.8)"/><use xlink:href="#I" transform="matrix(1,0,0,1,165,625) translate(123.45 67.8)"/><use xlink:href="#J" transform="matrix(1,0,0,1,165,625) translate(157.45 67.8)"/><use xlink:href="#K" transform="matrix(1,0,0,1,165,625) translate(73.525 89.4)"/><path d="M775 390h170v120H775z" stroke="#000" stroke-width="2" fill="#fff"/><use xlink:href="#L" transform="matrix(1,0,0,1,780,395) translate(0.6999999999999886 47.8)"/><use xlink:href="#M" transform="matrix(1,0,0,1,780,395) translate(47.54999999999999 47.8)"/><use xlink:href="#N" transform="matrix(1,0,0,1,780,395) translate(68.49999999999999 47.8)"/><use xlink:href="#O" transform="matrix(1,0,0,1,780,395) translate(79.44999999999999 47.8)"/><use xlink:href="#P" transform="matrix(1,0,0,1,780,395) translate(26.075000000000003 69.4)"/><use xlink:href="#Q" transform="matrix(1,0,0,1,780,395) translate(64.025 69.4)"/><use xlink:href="#R" transform="matrix(1,0,0,1,780,395) translate(104.925 69.4)"/><path d="M1440 390h160v120h-160z" stroke="#000" stroke-width="2" fill="#fff"/><use xlink:href="#S" transform="matrix(1,0,0,1,1445,395) translate(6.549999999999997 58.6)"/><use xlink:href="#T" transform="matrix(1,0,0,1,1445,395) translate(35.55 58.6)"/><use xlink:href="#U" transform="matrix(1,0,0,1,1445,395) translate(55.55 58.6)"/><use xlink:href="#V" transform="matrix(1,0,0,1,1445,395) translate(94.55 58.6)"/><path d="M1439 450h-139.76" stroke="#000" stroke-width="2" fill="none"/><path d="M1440 451h-1v-2h1zM1298.5 454.64l-14.26-4.64 14.26-4.64z"/><path d="M1299.5 456l-18.5-6 18.5-6zm-12.03-6l10.03 3.26v-6.52z"/><path d="M1120 60h160v120h-160z" stroke="#000" stroke-width="2" fill="#fff"/><use xlink:href="#n" transform="matrix(1,0,0,1,1125,65) translate(42.05 58.6)"/><use xlink:href="#W" transform="matrix(1,0,0,1,1125,65) translate(97.95 58.6)"/><path d="M1296 1023c24.3 0 44 20.15 44 45s-19.7 45-44 45h-132c-24.3 0-44-20.15-44-45s19.7-45 44-45z" stroke="#c92d39" stroke-width="2" fill="#fff"/><use xlink:href="#X" transform="matrix(1,0,0,1,1125,1028) translate(60.55 32.8)"/><use xlink:href="#Y" transform="matrix(1,0,0,1,1125,1028) translate(114.5 32.8)"/><use xlink:href="#Z" transform="matrix(1,0,0,1,1125,1028) translate(21.724999999999994 54.4)"/><use xlink:href="#x" transform="matrix(1,0,0,1,1125,1028) translate(92.525 54.4)"/><use xlink:href="#aa" transform="matrix(1,0,0,1,1125,1028) translate(146.425 54.4)"/><path d="M760.76 699.1v2H584.98v-2zM361.6 701v-2h194.03v2zM361.6 701h-2.85l1.25-1-1.25-1h2.85zM775.76 700.1l-14.26 4.64v-9.28z"/><path d="M779 700.1l-18.5 6v-12zm-16.5 3.26l10.03-3.26-10.03-3.26z"/><use xlink:href="#r" transform="matrix(1,0,0,1,555.6253905000001,689.25) translate(0 14.4)"/><path d="M1301 858h119.76" stroke="#000" stroke-width="2" fill="none"/><path d="M1301 859h-1v-2h1zM1435.76 858l-14.26 4.64v-9.28z"/><path d="M1439 858l-18.5 6v-12zm-16.5 3.26l10.03-3.26-10.03-3.26z"/><path d="M860 511v109.76" stroke="#000" stroke-width="2" fill="none"/><path d="M861 511h-2v-1h2zM860 635.76l-4.64-14.26h9.28z"/><path d="M860 639l-6-18.5h12zm-3.26-16.5l3.26 10.03 3.26-10.03z"/><path d="M260 370l110 80-110 80-110-80z" stroke="#000" stroke-width="2" fill="#fff"/><use xlink:href="#ab" transform="matrix(1,0,0,1,155,375) translate(30.150000000000006 67.8)"/><use xlink:href="#N" transform="matrix(1,0,0,1,155,375) translate(51.10000000000001 67.8)"/><use xlink:href="#ac" transform="matrix(1,0,0,1,155,375) translate(62.050000000000004 67.8)"/><use xlink:href="#ad" transform="matrix(1,0,0,1,155,375) translate(146.9 67.8)"/><use xlink:href="#ae" transform="matrix(1,0,0,1,155,375) translate(34.125 89.4)"/><use xlink:href="#af" transform="matrix(1,0,0,1,155,375) translate(117.92500000000001 89.4)"/><use xlink:href="#ag" transform="matrix(1,0,0,1,155,375) translate(136.875 89.4)"/><path d="M261 618.72h-2v-32.94h2zm0-54.54h-2v-14.7h2z"/><path d="M261 620.8l-1-.8-1 .8v-2.08h2zM264.64 548.74h-9.28l4.64-14.27z"/><path d="M266 549.74h-12l6-18.5zm-9.26-2h6.52L260 537.7z"/><g><use xlink:href="#u" transform="matrix(1,0,0,1,248.525,564.177936) translate(0 14.4)"/></g><path d="M558.18 451H371.7v-2h186.48zm197.58 0H587.53v-2h168.23zM371.7 451h-3l1.3-1-1.3-.95 3-.05zM770.76 450l-14.26 4.64v-9.28z"/><path d="M774 450l-18.5 6v-12zm-16.5 3.26l10.03-3.26-10.03-3.26z"/><g><use xlink:href="#r" transform="matrix(1,0,0,1,558.1750920000001,439.2) translate(0 14.4)"/></g><path d="M480 180h160v120H480z" stroke="#000" stroke-width="2" fill="#fff"/><g><use xlink:href="#ah" transform="matrix(1,0,0,1,485,185) translate(11.150000000000006 26.19999999999999)"/><use xlink:href="#ai" transform="matrix(1,0,0,1,485,185) translate(61.10000000000001 26.19999999999999)"/><use xlink:href="#aj" transform="matrix(1,0,0,1,485,185) translate(106 26.19999999999999)"/><use xlink:href="#ak" transform="matrix(1,0,0,1,485,185) translate(22.025 47.79999999999999)"/><use xlink:href="#al" transform="matrix(1,0,0,1,485,185) translate(65.025 47.79999999999999)"/><use xlink:href="#am" transform="matrix(1,0,0,1,485,185) translate(98.975 47.79999999999999)"/><use xlink:href="#an" transform="matrix(1,0,0,1,485,185) translate(12.099999999999994 69.39999999999999)"/><use xlink:href="#ao" transform="matrix(1,0,0,1,485,185) translate(62.05 69.39999999999999)"/><use xlink:href="#ap" transform="matrix(1,0,0,1,485,185) translate(98 69.39999999999999)"/><use xlink:href="#aq" transform="matrix(1,0,0,1,485,185) translate(50.05 91)"/></g><path d="M1119 450H964.24" stroke="#000" stroke-width="2" fill="none"/><path d="M1120 451h-1v-2h1zM963.5 454.64L949.24 450l14.26-4.64z"/><path d="M964.5 456l-18.5-6 18.5-6zm-12.03-6l10.03 3.26v-6.52z"/><path d="M1200 181v189.76" stroke="#000" stroke-width="2" fill="none"/><path d="M1201 181h-2v-1h2zM1200 385.76l-4.64-14.26h9.28z"/><path d="M1200 389l-6-18.5h12zm-3.26-16.5l3.26 10.03 3.26-10.03zM293.64 241H261v127.76h-2V239h34.64zm167.12 0H316.6v-2h144.16zM261 370.73l-1-.73-1 .73v-1.97h2zM475.76 240l-14.26 4.64v-9.28z"/><path d="M479 240l-18.5 6v-12zm-16.5 3.26l10.03-3.26-10.03-3.26z"/><g><use xlink:href="#u" transform="matrix(1,0,0,1,293.64324849999997,229.2) translate(0 14.4)"/></g><path d="M641 240h219v130.76" stroke="#000" stroke-width="2" fill="none"/><path d="M641 241h-1v-2h1zM860 385.76l-4.64-14.26h9.28z"/><path d="M860 389l-6-18.5h12zm-3.26-16.5l3.26 10.03 3.26-10.03z"/><path d="M1301 1278h219V927.24" stroke="#000" stroke-width="2" fill="none"/><path d="M1301 1279h-1v-2h1zM1524.64 926.5h-9.28l4.64-14.26z"/><path d="M1526 927.5h-12l6-18.5zm-9.26-2h6.52l-3.26-10.03z"/><path d="M1440 599h160v120h-160z" stroke="#000" stroke-width="2" fill="#fff"/><g><use xlink:href="#ar" transform="matrix(1,0,0,1,1445,604) translate(7.625 47.8)"/><use xlink:href="#as" transform="matrix(1,0,0,1,1445,604) translate(66.525 47.8)"/><use xlink:href="#P" transform="matrix(1,0,0,1,1445,604) translate(89.42500000000001 47.8)"/><use xlink:href="#w" transform="matrix(1,0,0,1,1445,604) translate(127.37500000000001 47.8)"/><use xlink:href="#R" transform="matrix(1,0,0,1,1445,604) translate(60.5 69.4)"/></g><path d="M1520 807v-68.76" stroke="#000" stroke-width="2" fill="none"/><path d="M1521 808h-2v-1h2zM1524.64 737.5h-9.28l4.64-14.26z"/><path d="M1526 738.5h-12l6-18.5zm-9.26-2h6.52l-3.26-10.03z"/><path d="M1520 598v-68.76" stroke="#000" stroke-width="2" fill="none"/><path d="M1521 599h-2v-1h2zM1524.64 528.5h-9.28l4.64-14.26z"/><path d="M1526 529.5h-12l6-18.5zm-9.26-2h6.52l-3.26-10.03z"/><defs><path d="M185-189c-5-48-123-54-124 2 14 75 158 14 163 119 3 78-121 87-175 55-17-10-28-26-33-46l33-7c5 56 141 63 141-1 0-78-155-14-162-118-5-82 145-84 179-34 5 7 8 16 11 25" id="at"/><path d="M59-47c-2 24 18 29 38 22v24C64 9 27 4 27-40v-127H5v-23h24l9-43h21v43h35v23H59v120" id="au"/><path d="M141-36C126-15 110 5 73 4 37 3 15-17 15-53c-1-64 63-63 125-63 3-35-9-54-41-54-24 1-41 7-42 31l-33-3c5-37 33-52 76-52 45 0 72 20 72 64v82c-1 20 7 32 28 27v20c-31 9-61-2-59-35zM48-53c0 20 12 33 32 33 41-3 63-29 60-74-43 2-92-5-92 41" id="av"/><path d="M114-163C36-179 61-72 57 0H25l-1-190h30c1 12-1 29 2 39 6-27 23-49 58-41v29" id="aw"/><g id="a"><use transform="matrix(0.05,0,0,0.05,0,0)" xlink:href="#at"/><use transform="matrix(0.05,0,0,0.05,12,0)" xlink:href="#au"/><use transform="matrix(0.05,0,0,0.05,17,0)" xlink:href="#av"/><use transform="matrix(0.05,0,0,0.05,27,0)" xlink:href="#aw"/><use transform="matrix(0.05,0,0,0.05,32.95,0)" xlink:href="#au"/></g><path d="M127-220V0H93v-220H8v-28h204v28h-85" id="ax"/><path d="M84 4C-5 8 30-112 23-190h32v120c0 31 7 50 39 49 72-2 45-101 50-169h31l1 190h-30c-1-10 1-25-2-33-11 22-28 36-60 37" id="ay"/><path d="M117-194c89-4 53 116 60 194h-32v-121c0-31-8-49-39-48C34-167 62-67 57 0H25l-1-190h30c1 10-1 24 2 32 11-22 29-35 61-36" id="az"/><g id="b"><use transform="matrix(0.05,0,0,0.05,0,0)" xlink:href="#ax"/><use transform="matrix(0.05,0,0,0.05,10.3,0)" xlink:href="#ay"/><use transform="matrix(0.05,0,0,0.05,20.3,0)" xlink:href="#aw"/><use transform="matrix(0.05,0,0,0.05,26.25,0)" xlink:href="#az"/></g><path d="M233-177c-1 41-23 64-60 70L243 0h-38l-65-103H63V0H30v-248c88 3 205-21 203 71zM63-129c60-2 137 13 137-47 0-61-80-42-137-45v92" id="aA"/><path d="M100-194c62-1 85 37 85 99 1 63-27 99-86 99S16-35 15-95c0-66 28-99 85-99zM99-20c44 1 53-31 53-75 0-43-8-75-51-75s-53 32-53 75 10 74 51 75" id="aB"/><path d="M24 0v-261h32V0H24" id="aC"/><g id="c"><use transform="matrix(0.05,0,0,0.05,0,0)" xlink:href="#aA"/><use transform="matrix(0.05,0,0,0.05,12.950000000000001,0)" xlink:href="#aB"/><use transform="matrix(0.05,0,0,0.05,22.950000000000003,0)" xlink:href="#aC"/><use transform="matrix(0.05,0,0,0.05,26.900000000000002,0)" xlink:href="#aC"/></g><path d="M126-127c33 6 58 20 58 59 0 88-139 92-164 29-3-8-5-16-6-25l32-3c6 27 21 44 54 44 32 0 52-15 52-46 0-38-36-46-79-43v-28c39 1 72-4 72-42 0-27-17-43-46-43-28 0-47 15-49 41l-32-3c6-42 35-63 81-64 48-1 79 21 79 65 0 36-21 52-52 59" id="aD"/><use transform="matrix(0.05,0,0,0.05,0,0)" xlink:href="#aD" id="d"/><path d="M30-248c118-7 216 8 213 122C240-48 200 0 122 0H30v-248zM63-27c89 8 146-16 146-99s-60-101-146-95v194" id="aE"/><path d="M24-231v-30h32v30H24zM24 0v-190h32V0H24" id="aF"/><path d="M96-169c-40 0-48 33-48 73s9 75 48 75c24 0 41-14 43-38l32 2c-6 37-31 61-74 61-59 0-76-41-82-99-10-93 101-131 147-64 4 7 5 14 7 22l-32 3c-4-21-16-35-41-35" id="aG"/><path d="M100-194c63 0 86 42 84 106H49c0 40 14 67 53 68 26 1 43-12 49-29l28 8c-11 28-37 45-77 45C44 4 14-33 15-96c1-61 26-98 85-98zm52 81c6-60-76-77-97-28-3 7-6 17-6 28h103" id="aH"/><g id="e"><use transform="matrix(0.05,0,0,0.05,0,0)" xlink:href="#aE"/><use transform="matrix(0.05,0,0,0.05,12.950000000000001,0)" xlink:href="#aF"/><use transform="matrix(0.05,0,0,0.05,16.900000000000002,0)" xlink:href="#aG"/><use transform="matrix(0.05,0,0,0.05,25.900000000000002,0)" xlink:href="#aH"/></g><path d="M87 75C49 33 22-17 22-94c0-76 28-126 65-167h31c-38 41-64 92-64 168S80 34 118 75H87" id="aI"/><path d="M30-248c87 1 191-15 191 75 0 78-77 80-158 76V0H30v-248zm33 125c57 0 124 11 124-50 0-59-68-47-124-48v98" id="aJ"/><g id="f"><use transform="matrix(0.05,0,0,0.05,0,0)" xlink:href="#aI"/><use transform="matrix(0.05,0,0,0.05,5.95,0)" xlink:href="#aJ"/><use transform="matrix(0.05,0,0,0.05,17.95,0)" xlink:href="#ay"/><use transform="matrix(0.05,0,0,0.05,27.950000000000003,0)" xlink:href="#au"/></g><path d="M135-143c-3-34-86-38-87 0 15 53 115 12 119 90S17 21 10-45l28-5c4 36 97 45 98 0-10-56-113-15-118-90-4-57 82-63 122-42 12 7 21 19 24 35" id="aK"/><path d="M106-169C34-169 62-67 57 0H25v-261h32l-1 103c12-21 28-36 61-36 89 0 53 116 60 194h-32v-121c2-32-8-49-39-48" id="aL"/><path d="M177-190C167-65 218 103 67 71c-23-6-38-20-44-43l32-5c15 47 100 32 89-28v-30C133-14 115 1 83 1 29 1 15-40 15-95c0-56 16-97 71-98 29-1 48 16 59 35 1-10 0-23 2-32h30zM94-22c36 0 50-32 50-73 0-42-14-75-50-75-39 0-46 34-46 75s6 73 46 73" id="aM"/><g id="g"><use transform="matrix(0.05,0,0,0.05,0,0)" xlink:href="#aK"/><use transform="matrix(0.05,0,0,0.05,9,0)" xlink:href="#aL"/><use transform="matrix(0.05,0,0,0.05,19,0)" xlink:href="#aB"/><use transform="matrix(0.05,0,0,0.05,29,0)" xlink:href="#au"/><use transform="matrix(0.05,0,0,0.05,34,0)" xlink:href="#aM"/><use transform="matrix(0.05,0,0,0.05,44,0)" xlink:href="#ay"/><use transform="matrix(0.05,0,0,0.05,54,0)" xlink:href="#az"/><use transform="matrix(0.05,0,0,0.05,64,0)" xlink:href="#aK"/></g><path d="M85-194c31 0 48 13 60 33l-1-100h32l1 261h-30c-2-10 0-23-3-31C134-8 116 4 85 4 32 4 16-35 15-94c0-66 23-100 70-100zm9 24c-40 0-46 34-46 75 0 40 6 74 45 74 42 0 51-32 51-76 0-42-9-74-50-73" id="aN"/><g id="h"><use transform="matrix(0.05,0,0,0.05,0,0)" xlink:href="#av"/><use transform="matrix(0.05,0,0,0.05,10,0)" xlink:href="#az"/><use transform="matrix(0.05,0,0,0.05,20,0)" xlink:href="#aN"/></g><path d="M115-194c53 0 69 39 70 98 0 66-23 100-70 100C84 3 66-7 56-30L54 0H23l1-261h32v101c10-23 28-34 59-34zm-8 174c40 0 45-34 45-75 0-40-5-75-45-74-42 0-51 32-51 76 0 43 10 73 51 73" id="aO"/><g id="i"><use transform="matrix(0.05,0,0,0.05,0,0)" xlink:href="#aO"/><use transform="matrix(0.05,0,0,0.05,10,0)" xlink:href="#aw"/><use transform="matrix(0.05,0,0,0.05,15.949999999999998,0)" xlink:href="#av"/><use transform="matrix(0.05,0,0,0.05,25.950000000000003,0)" xlink:href="#aF"/><use transform="matrix(0.05,0,0,0.05,29.899999999999995,0)" xlink:href="#az"/><use transform="matrix(0.05,0,0,0.05,39.9,0)" xlink:href="#aK"/></g><path d="M33-261c38 41 65 92 65 168S71 34 33 75H2C39 34 66-17 66-93S39-220 2-261h31" id="aP"/><g id="j"><use transform="matrix(0.05,0,0,0.05,0,0)" xlink:href="#av"/><use transform="matrix(0.05,0,0,0.05,10,0)" xlink:href="#aK"/><use transform="matrix(0.05,0,0,0.05,19,0)" xlink:href="#aF"/><use transform="matrix(0.05,0,0,0.05,22.95,0)" xlink:href="#aN"/><use transform="matrix(0.05,0,0,0.05,32.95,0)" xlink:href="#aH"/><use transform="matrix(0.05,0,0,0.05,42.95,0)" xlink:href="#aP"/></g><use transform="matrix(0.05,0,0,0.05,0,0)" xlink:href="#aD" id="k"/><path d="M103-251c84 0 111 97 45 133-19 10-37 24-39 52H78c0-63 77-55 77-114 0-30-21-42-52-43-32 0-53 17-56 46l-32-2c7-45 34-72 88-72zM77 0v-35h34V0H77" id="aQ"/><g id="l"><use transform="matrix(0.05,0,0,0.05,0,0)" xlink:href="#aK"/><use transform="matrix(0.05,0,0,0.05,9,0)" xlink:href="#aL"/><use transform="matrix(0.05,0,0,0.05,19,0)" xlink:href="#aB"/><use transform="matrix(0.05,0,0,0.05,29,0)" xlink:href="#au"/><use transform="matrix(0.05,0,0,0.05,34,0)" xlink:href="#aM"/><use transform="matrix(0.05,0,0,0.05,44,0)" xlink:href="#ay"/><use transform="matrix(0.05,0,0,0.05,54,0)" xlink:href="#az"/><use transform="matrix(0.05,0,0,0.05,64,0)" xlink:href="#aK"/><use transform="matrix(0.05,0,0,0.05,73,0)" xlink:href="#aQ"/></g><path d="M30 0v-248h187v28H63v79h144v27H63v87h162V0H30" id="aR"/><g id="m"><use transform="matrix(0.05,0,0,0.05,0,0)" xlink:href="#aR"/><use transform="matrix(0.05,0,0,0.05,12,0)" xlink:href="#az"/><use transform="matrix(0.05,0,0,0.05,22,0)" xlink:href="#aN"/></g><path d="M179-190L93 31C79 59 56 82 12 73V49c39 6 53-20 64-50L1-190h34L92-34l54-156h33" id="aS"/><g id="n"><use transform="matrix(0.05,0,0,0.05,0,0)" xlink:href="#aJ"/><use transform="matrix(0.05,0,0,0.05,12,0)" xlink:href="#aC"/><use transform="matrix(0.05,0,0,0.05,15.949999999999998,0)" xlink:href="#av"/><use transform="matrix(0.05,0,0,0.05,25.950000000000003,0)" xlink:href="#aS"/><use transform="matrix(0.05,0,0,0.05,34.95,0)" xlink:href="#aH"/><use transform="matrix(0.05,0,0,0.05,44.95,0)" xlink:href="#aw"/></g><g id="o"><use transform="matrix(0.05,0,0,0.05,0,0)" xlink:href="#aH"/><use transform="matrix(0.05,0,0,0.05,10,0)" xlink:href="#av"/><use transform="matrix(0.05,0,0,0.05,20,0)" xlink:href="#aw"/><use transform="matrix(0.05,0,0,0.05,25.950000000000003,0)" xlink:href="#az"/><use transform="matrix(0.05,0,0,0.05,35.95,0)" xlink:href="#aK"/></g><path d="M101-251c68 0 85 55 85 127S166 4 100 4C33 4 14-52 14-124c0-73 17-127 87-127zm-1 229c47 0 54-49 54-102s-4-102-53-102c-51 0-55 48-55 102 0 53 5 102 54 102" id="aT"/><use transform="matrix(0.05,0,0,0.05,0,0)" xlink:href="#aT" id="p"/><path d="M115-194c55 1 70 41 70 98S169 2 115 4C84 4 66-9 55-30l1 105H24l-1-265h31l2 30c10-21 28-34 59-34zm-8 174c40 0 45-34 45-75s-6-73-45-74c-42 0-51 32-51 76 0 43 10 73 51 73" id="aU"/><g id="q"><use transform="matrix(0.05,0,0,0.05,0,0)" xlink:href="#aU"/><use transform="matrix(0.05,0,0,0.05,10,0)" xlink:href="#aB"/><use transform="matrix(0.05,0,0,0.05,20,0)" xlink:href="#aF"/><use transform="matrix(0.05,0,0,0.05,23.95,0)" xlink:href="#az"/><use transform="matrix(0.05,0,0,0.05,33.95,0)" xlink:href="#au"/><use transform="matrix(0.05,0,0,0.05,38.95,0)" xlink:href="#aK"/></g><path d="M137-103V0h-34v-103L8-248h37l75 118 75-118h37" id="aV"/><g id="r"><use transform="matrix(0.05,0,0,0.05,0,0)" xlink:href="#aV"/><use transform="matrix(0.05,0,0,0.05,10.35,0)" xlink:href="#aH"/><use transform="matrix(0.05,0,0,0.05,20.35,0)" xlink:href="#aK"/></g><path d="M194 0L95-120 63-95V0H30v-248h33v124l119-124h40L117-140 236 0h-42" id="aW"/><g id="s"><use transform="matrix(0.05,0,0,0.05,0,0)" xlink:href="#aW"/><use transform="matrix(0.05,0,0,0.05,12,0)" xlink:href="#aH"/><use transform="matrix(0.05,0,0,0.05,22,0)" xlink:href="#aH"/><use transform="matrix(0.05,0,0,0.05,32,0)" xlink:href="#aU"/></g><g id="t"><use transform="matrix(0.05,0,0,0.05,0,0)" xlink:href="#aA"/><use transform="matrix(0.05,0,0,0.05,12.950000000000001,0)" xlink:href="#aB"/><use transform="matrix(0.05,0,0,0.05,22.950000000000003,0)" xlink:href="#aC"/><use transform="matrix(0.05,0,0,0.05,26.900000000000002,0)" xlink:href="#aC"/><use transform="matrix(0.05,0,0,0.05,30.85,0)" xlink:href="#aF"/><use transform="matrix(0.05,0,0,0.05,34.800000000000004,0)" xlink:href="#az"/><use transform="matrix(0.05,0,0,0.05,44.800000000000004,0)" xlink:href="#aM"/><use transform="matrix(0.05,0,0,0.05,54.800000000000004,0)" xlink:href="#aQ"/></g><path d="M190 0L58-211 59 0H30v-248h39L202-35l-2-213h31V0h-41" id="aX"/><g id="u"><use transform="matrix(0.05,0,0,0.05,0,0)" xlink:href="#aX"/><use transform="matrix(0.05,0,0,0.05,12.950000000000001,0)" xlink:href="#aB"/></g><path d="M205 0l-28-72H64L36 0H1l101-248h38L239 0h-34zm-38-99l-47-123c-12 45-31 82-46 123h93" id="aY"/><g id="v"><use transform="matrix(0.05,0,0,0.05,0,0)" xlink:href="#aY"/><use transform="matrix(0.05,0,0,0.05,12,0)" xlink:href="#aN"/><use transform="matrix(0.05,0,0,0.05,22,0)" xlink:href="#aN"/></g><g id="w"><use transform="matrix(0.05,0,0,0.05,0,0)" xlink:href="#au"/><use transform="matrix(0.05,0,0,0.05,5,0)" xlink:href="#aB"/></g><g id="x"><use transform="matrix(0.05,0,0,0.05,0,0)" xlink:href="#aU"/><use transform="matrix(0.05,0,0,0.05,10,0)" xlink:href="#aC"/><use transform="matrix(0.05,0,0,0.05,13.949999999999998,0)" xlink:href="#av"/><use transform="matrix(0.05,0,0,0.05,23.95,0)" xlink:href="#aS"/><use transform="matrix(0.05,0,0,0.05,32.95,0)" xlink:href="#aH"/><use transform="matrix(0.05,0,0,0.05,42.95,0)" xlink:href="#aw"/></g><g id="y"><use transform="matrix(0.05,0,0,0.05,0,0)" xlink:href="#aK"/><use transform="matrix(0.05,0,0,0.05,9,0)" xlink:href="#aG"/><use transform="matrix(0.05,0,0,0.05,18,0)" xlink:href="#aB"/><use transform="matrix(0.05,0,0,0.05,28,0)" xlink:href="#aw"/><use transform="matrix(0.05,0,0,0.05,33.95,0)" xlink:href="#aH"/></g><path d="M33 0v-248h34V0H33" id="aZ"/><g id="z"><use transform="matrix(0.05,0,0,0.05,0,0)" xlink:href="#aZ"/><use transform="matrix(0.05,0,0,0.05,5,0)" xlink:href="#aK"/></g><g id="A"><use transform="matrix(0.05,0,0,0.05,0,0)" xlink:href="#aU"/><use transform="matrix(0.05,0,0,0.05,10,0)" xlink:href="#aC"/><use transform="matrix(0.05,0,0,0.05,13.949999999999998,0)" xlink:href="#av"/><use transform="matrix(0.05,0,0,0.05,23.95,0)" xlink:href="#aS"/><use transform="matrix(0.05,0,0,0.05,32.95,0)" xlink:href="#aH"/><use transform="matrix(0.05,0,0,0.05,42.95,0)" xlink:href="#aw"/></g><g id="B"><use transform="matrix(0.05,0,0,0.05,0,0)" xlink:href="#aK"/><use transform="matrix(0.05,0,0,0.05,9,0)" xlink:href="#aG"/><use transform="matrix(0.05,0,0,0.05,18,0)" xlink:href="#aB"/><use transform="matrix(0.05,0,0,0.05,28,0)" xlink:href="#aw"/><use transform="matrix(0.05,0,0,0.05,33.95,0)" xlink:href="#aH"/></g><path d="M118-107v75H92v-75H18v-26h74v-75h26v75h74v26h-74" id="ba"/><use transform="matrix(0.05,0,0,0.05,0,0)" xlink:href="#ba" id="C"/><g id="D"><use transform="matrix(0.05,0,0,0.05,0,0)" xlink:href="#aG"/><use transform="matrix(0.05,0,0,0.05,9,0)" xlink:href="#ay"/><use transform="matrix(0.05,0,0,0.05,19,0)" xlink:href="#aw"/><use transform="matrix(0.05,0,0,0.05,24.95,0)" xlink:href="#aw"/><use transform="matrix(0.05,0,0,0.05,30.899999999999995,0)" xlink:href="#aH"/><use transform="matrix(0.05,0,0,0.05,40.9,0)" xlink:href="#az"/><use transform="matrix(0.05,0,0,0.05,50.9,0)" xlink:href="#au"/></g><g id="E"><use transform="matrix(0.05,0,0,0.05,0,0)" xlink:href="#au"/><use transform="matrix(0.05,0,0,0.05,5,0)" xlink:href="#ay"/><use transform="matrix(0.05,0,0,0.05,15,0)" xlink:href="#aw"/><use transform="matrix(0.05,0,0,0.05,20.95,0)" xlink:href="#az"/></g><path d="M18-27v-27l151-64-151-65v-27l175 74v36" id="bb"/><path d="M18-150v-26h174v26H18zm0 90v-26h174v26H18" id="bc"/><g id="F"><use transform="matrix(0.05,0,0,0.05,0,0)" xlink:href="#bb"/><use transform="matrix(0.05,0,0,0.05,10.5,0)" xlink:href="#bc"/></g><path d="M27 0v-27h64v-190l-56 39v-29l58-41h29v221h61V0H27" id="bd"/><g id="G"><use transform="matrix(0.05,0,0,0.05,0,0)" xlink:href="#bd"/><use transform="matrix(0.05,0,0,0.05,10,0)" xlink:href="#aD"/><use transform="matrix(0.05,0,0,0.05,20,0)" xlink:href="#aQ"/></g><g id="H"><use transform="matrix(0.05,0,0,0.05,0,0)" xlink:href="#aL"/><use transform="matrix(0.05,0,0,0.05,10,0)" xlink:href="#av"/><use transform="matrix(0.05,0,0,0.05,20,0)" xlink:href="#az"/><use transform="matrix(0.05,0,0,0.05,30,0)" xlink:href="#aN"/></g><g id="I"><use transform="matrix(0.05,0,0,0.05,0,0)" xlink:href="#aL"/><use transform="matrix(0.05,0,0,0.05,10,0)" xlink:href="#av"/><use transform="matrix(0.05,0,0,0.05,20,0)" xlink:href="#aK"/></g><use transform="matrix(0.05,0,0,0.05,0,0)" xlink:href="#aD" id="J"/><g id="K"><use transform="matrix(0.05,0,0,0.05,0,0)" xlink:href="#aN"/><use transform="matrix(0.05,0,0,0.05,10,0)" xlink:href="#aF"/><use transform="matrix(0.05,0,0,0.05,13.949999999999998,0)" xlink:href="#aG"/><use transform="matrix(0.05,0,0,0.05,22.95,0)" xlink:href="#aH"/><use transform="matrix(0.05,0,0,0.05,32.95,0)" xlink:href="#aQ"/></g><path d="M206 0h-36l-40-164L89 0H53L-1-190h32L70-26l43-164h34l41 164 42-164h31" id="be"/><g id="L"><use transform="matrix(0.05,0,0,0.05,0,0)" xlink:href="#aE"/><use transform="matrix(0.05,0,0,0.05,12.950000000000001,0)" xlink:href="#aw"/><use transform="matrix(0.05,0,0,0.05,18.900000000000002,0)" xlink:href="#av"/><use transform="matrix(0.05,0,0,0.05,28.900000000000002,0)" xlink:href="#be"/></g><g id="M"><use transform="matrix(0.05,0,0,0.05,0,0)" xlink:href="#aI"/><use transform="matrix(0.05,0,0,0.05,5.95,0)" xlink:href="#aD"/></g><path d="M16-82v-28h88v28H16" id="bf"/><use transform="matrix(0.05,0,0,0.05,0,0)" xlink:href="#bf" id="N"/><path d="M101-234c-31-9-42 10-38 44h38v23H63V0H32v-167H5v-23h27c-7-52 17-82 69-68v24" id="bg"/><g id="O"><use transform="matrix(0.05,0,0,0.05,0,0)" xlink:href="#bg"/><use transform="matrix(0.05,0,0,0.05,5,0)" xlink:href="#aB"/><use transform="matrix(0.05,0,0,0.05,15,0)" xlink:href="#aB"/><use transform="matrix(0.05,0,0,0.05,25,0)" xlink:href="#au"/><use transform="matrix(0.05,0,0,0.05,30,0)" xlink:href="#aU"/><use transform="matrix(0.05,0,0,0.05,40,0)" xlink:href="#aw"/><use transform="matrix(0.05,0,0,0.05,45.95,0)" xlink:href="#aF"/><use transform="matrix(0.05,0,0,0.05,49.900000000000006,0)" xlink:href="#az"/><use transform="matrix(0.05,0,0,0.05,59.900000000000006,0)" xlink:href="#au"/><use transform="matrix(0.05,0,0,0.05,64.9,0)" xlink:href="#aK"/><use transform="matrix(0.05,0,0,0.05,73.9,0)" xlink:href="#aP"/></g><g id="P"><use transform="matrix(0.05,0,0,0.05,0,0)" xlink:href="#aN"/><use transform="matrix(0.05,0,0,0.05,10,0)" xlink:href="#aF"/><use transform="matrix(0.05,0,0,0.05,13.949999999999998,0)" xlink:href="#aG"/><use transform="matrix(0.05,0,0,0.05,22.95,0)" xlink:href="#aH"/></g><path d="M210-169c-67 3-38 105-44 169h-31v-121c0-29-5-50-35-48C34-165 62-65 56 0H25l-1-190h30c1 10-1 24 2 32 10-44 99-50 107 0 11-21 27-35 58-36 85-2 47 119 55 194h-31v-121c0-29-5-49-35-48" id="bh"/><g id="Q"><use transform="matrix(0.05,0,0,0.05,0,0)" xlink:href="#bg"/><use transform="matrix(0.05,0,0,0.05,5,0)" xlink:href="#aw"/><use transform="matrix(0.05,0,0,0.05,10.95,0)" xlink:href="#aB"/><use transform="matrix(0.05,0,0,0.05,20.95,0)" xlink:href="#bh"/></g><g id="R"><use transform="matrix(0.05,0,0,0.05,0,0)" xlink:href="#aG"/><use transform="matrix(0.05,0,0,0.05,9,0)" xlink:href="#ay"/><use transform="matrix(0.05,0,0,0.05,19,0)" xlink:href="#aU"/></g><path d="M143 4C61 4 22-44 18-125c-5-107 100-154 193-111 17 8 29 25 37 43l-32 9c-13-25-37-40-76-40-61 0-88 39-88 99 0 61 29 100 91 101 35 0 62-11 79-27v-45h-74v-28h105v86C228-13 192 4 143 4" id="bi"/><g id="S"><use transform="matrix(0.05,0,0,0.05,0,0)" xlink:href="#bi"/><use transform="matrix(0.05,0,0,0.05,14,0)" xlink:href="#aB"/></g><g id="T"><use transform="matrix(0.05,0,0,0.05,0,0)" xlink:href="#au"/><use transform="matrix(0.05,0,0,0.05,5,0)" xlink:href="#aB"/></g><path d="M141 0L90-78 38 0H4l68-98-65-92h35l48 74 47-74h35l-64 92 68 98h-35" id="bj"/><g id="U"><use transform="matrix(0.05,0,0,0.05,0,0)" xlink:href="#az"/><use transform="matrix(0.05,0,0,0.05,10,0)" xlink:href="#aH"/><use transform="matrix(0.05,0,0,0.05,20,0)" xlink:href="#bj"/><use transform="matrix(0.05,0,0,0.05,29,0)" xlink:href="#au"/></g><g id="V"><use transform="matrix(0.05,0,0,0.05,0,0)" xlink:href="#aU"/><use transform="matrix(0.05,0,0,0.05,10,0)" xlink:href="#aC"/><use transform="matrix(0.05,0,0,0.05,13.949999999999998,0)" xlink:href="#av"/><use transform="matrix(0.05,0,0,0.05,23.95,0)" xlink:href="#aS"/><use transform="matrix(0.05,0,0,0.05,32.95,0)" xlink:href="#aH"/><use transform="matrix(0.05,0,0,0.05,42.95,0)" xlink:href="#aw"/></g><use transform="matrix(0.05,0,0,0.05,0,0)" xlink:href="#aT" id="W"/><g id="X"><use transform="matrix(0.05,0,0,0.05,0,0)" xlink:href="#bi"/><use transform="matrix(0.05,0,0,0.05,14,0)" xlink:href="#av"/><use transform="matrix(0.05,0,0,0.05,24,0)" xlink:href="#bh"/><use transform="matrix(0.05,0,0,0.05,38.95,0)" xlink:href="#aH"/></g><path d="M108 0H70L1-190h34L89-25l56-165h34" id="bk"/><g id="Y"><use transform="matrix(0.05,0,0,0.05,0,0)" xlink:href="#aB"/><use transform="matrix(0.05,0,0,0.05,10,0)" xlink:href="#bk"/><use transform="matrix(0.05,0,0,0.05,19,0)" xlink:href="#aH"/><use transform="matrix(0.05,0,0,0.05,29,0)" xlink:href="#aw"/></g><path d="M212-179c-10-28-35-45-73-45-59 0-87 40-87 99 0 60 29 101 89 101 43 0 62-24 78-52l27 14C228-24 195 4 139 4 59 4 22-46 18-125c-6-104 99-153 187-111 19 9 31 26 39 46" id="bl"/><g id="Z"><use transform="matrix(0.05,0,0,0.05,0,0)" xlink:href="#aI"/><use transform="matrix(0.05,0,0,0.05,5.95,0)" xlink:href="#bl"/><use transform="matrix(0.05,0,0,0.05,18.900000000000002,0)" xlink:href="#ay"/><use transform="matrix(0.05,0,0,0.05,28.900000000000002,0)" xlink:href="#aw"/><use transform="matrix(0.05,0,0,0.05,34.85,0)" xlink:href="#aw"/><use transform="matrix(0.05,0,0,0.05,40.800000000000004,0)" xlink:href="#aH"/><use transform="matrix(0.05,0,0,0.05,50.800000000000004,0)" xlink:href="#az"/><use transform="matrix(0.05,0,0,0.05,60.800000000000004,0)" xlink:href="#au"/></g><g id="aa"><use transform="matrix(0.05,0,0,0.05,0,0)" xlink:href="#be"/><use transform="matrix(0.05,0,0,0.05,12.950000000000001,0)" xlink:href="#aF"/><use transform="matrix(0.05,0,0,0.05,16.900000000000002,0)" xlink:href="#az"/><use transform="matrix(0.05,0,0,0.05,26.900000000000002,0)" xlink:href="#aK"/><use transform="matrix(0.05,0,0,0.05,35.900000000000006,0)" xlink:href="#aP"/></g><g id="ab"><use transform="matrix(0.05,0,0,0.05,0,0)" xlink:href="#aI"/><use transform="matrix(0.05,0,0,0.05,5.95,0)" xlink:href="#aD"/></g><g id="ac"><use transform="matrix(0.05,0,0,0.05,0,0)" xlink:href="#bg"/><use transform="matrix(0.05,0,0,0.05,5,0)" xlink:href="#aB"/><use transform="matrix(0.05,0,0,0.05,15,0)" xlink:href="#aB"/><use transform="matrix(0.05,0,0,0.05,25,0)" xlink:href="#au"/><use transform="matrix(0.05,0,0,0.05,30,0)" xlink:href="#aU"/><use transform="matrix(0.05,0,0,0.05,40,0)" xlink:href="#aw"/><use transform="matrix(0.05,0,0,0.05,45.95,0)" xlink:href="#aF"/><use transform="matrix(0.05,0,0,0.05,49.900000000000006,0)" xlink:href="#az"/><use transform="matrix(0.05,0,0,0.05,59.900000000000006,0)" xlink:href="#au"/><use transform="matrix(0.05,0,0,0.05,64.9,0)" xlink:href="#aK"/><use transform="matrix(0.05,0,0,0.05,73.9,0)" xlink:href="#aP"/></g><g id="ad"><use transform="matrix(0.05,0,0,0.05,0,0)" xlink:href="#aN"/><use transform="matrix(0.05,0,0,0.05,10,0)" xlink:href="#aF"/><use transform="matrix(0.05,0,0,0.05,13.949999999999998,0)" xlink:href="#aG"/><use transform="matrix(0.05,0,0,0.05,22.95,0)" xlink:href="#aH"/></g><g id="ae"><use transform="matrix(0.05,0,0,0.05,0,0)" xlink:href="#aw"/><use transform="matrix(0.05,0,0,0.05,5.95,0)" xlink:href="#aH"/><use transform="matrix(0.05,0,0,0.05,15.949999999999998,0)" xlink:href="#bh"/><use transform="matrix(0.05,0,0,0.05,30.899999999999995,0)" xlink:href="#av"/><use transform="matrix(0.05,0,0,0.05,40.9,0)" xlink:href="#aF"/><use transform="matrix(0.05,0,0,0.05,44.85,0)" xlink:href="#az"/><use transform="matrix(0.05,0,0,0.05,54.85,0)" xlink:href="#aF"/><use transform="matrix(0.05,0,0,0.05,58.800000000000004,0)" xlink:href="#az"/><use transform="matrix(0.05,0,0,0.05,68.80000000000001,0)" xlink:href="#aM"/></g><g id="af"><use transform="matrix(0.05,0,0,0.05,0,0)" xlink:href="#aF"/><use transform="matrix(0.05,0,0,0.05,3.95,0)" xlink:href="#az"/></g><g id="ag"><use transform="matrix(0.05,0,0,0.05,0,0)" xlink:href="#aG"/><use transform="matrix(0.05,0,0,0.05,9,0)" xlink:href="#ay"/><use transform="matrix(0.05,0,0,0.05,19,0)" xlink:href="#aU"/><use transform="matrix(0.05,0,0,0.05,29,0)" xlink:href="#aQ"/></g><g id="ah"><use transform="matrix(0.05,0,0,0.05,0,0)" xlink:href="#aJ"/><use transform="matrix(0.05,0,0,0.05,12,0)" xlink:href="#aC"/><use transform="matrix(0.05,0,0,0.05,15.949999999999998,0)" xlink:href="#av"/><use transform="matrix(0.05,0,0,0.05,25.950000000000003,0)" xlink:href="#aG"/><use transform="matrix(0.05,0,0,0.05,34.95,0)" xlink:href="#aH"/></g><g id="ai"><use transform="matrix(0.05,0,0,0.05,0,0)" xlink:href="#aO"/><use transform="matrix(0.05,0,0,0.05,10,0)" xlink:href="#aw"/><use transform="matrix(0.05,0,0,0.05,15.949999999999998,0)" xlink:href="#av"/><use transform="matrix(0.05,0,0,0.05,25.950000000000003,0)" xlink:href="#aF"/><use transform="matrix(0.05,0,0,0.05,29.899999999999995,0)" xlink:href="#az"/></g><g id="aj"><use transform="matrix(0.05,0,0,0.05,0,0)" xlink:href="#aw"/><use transform="matrix(0.05,0,0,0.05,5.95,0)" xlink:href="#aB"/><use transform="matrix(0.05,0,0,0.05,15.949999999999998,0)" xlink:href="#aC"/><use transform="matrix(0.05,0,0,0.05,19.9,0)" xlink:href="#aC"/><use transform="matrix(0.05,0,0,0.05,23.849999999999998,0)" xlink:href="#aK"/></g><path d="M143 0L79-87 56-68V0H24v-261h32v163l83-92h37l-77 82L181 0h-38" id="bm"/><g id="ak"><use transform="matrix(0.05,0,0,0.05,0,0)" xlink:href="#aO"/><use transform="matrix(0.05,0,0,0.05,10,0)" xlink:href="#av"/><use transform="matrix(0.05,0,0,0.05,20,0)" xlink:href="#aG"/><use transform="matrix(0.05,0,0,0.05,29,0)" xlink:href="#bm"/></g><g id="al"><use transform="matrix(0.05,0,0,0.05,0,0)" xlink:href="#aF"/><use transform="matrix(0.05,0,0,0.05,3.95,0)" xlink:href="#az"/><use transform="matrix(0.05,0,0,0.05,13.949999999999998,0)" xlink:href="#au"/><use transform="matrix(0.05,0,0,0.05,18.95,0)" xlink:href="#aB"/></g><g id="am"><use transform="matrix(0.05,0,0,0.05,0,0)" xlink:href="#aG"/><use transform="matrix(0.05,0,0,0.05,9,0)" xlink:href="#ay"/><use transform="matrix(0.05,0,0,0.05,19,0)" xlink:href="#aU"/></g><g id="an"><use transform="matrix(0.05,0,0,0.05,0,0)" xlink:href="#aI"/><use transform="matrix(0.05,0,0,0.05,5.95,0)" xlink:href="#bm"/><use transform="matrix(0.05,0,0,0.05,14.949999999999998,0)" xlink:href="#aH"/><use transform="matrix(0.05,0,0,0.05,24.95,0)" xlink:href="#aH"/><use transform="matrix(0.05,0,0,0.05,34.95,0)" xlink:href="#aU"/></g><g id="ao"><use transform="matrix(0.05,0,0,0.05,0,0)" xlink:href="#au"/><use transform="matrix(0.05,0,0,0.05,5,0)" xlink:href="#ay"/><use transform="matrix(0.05,0,0,0.05,15,0)" xlink:href="#aw"/><use transform="matrix(0.05,0,0,0.05,20.95,0)" xlink:href="#az"/></g><g id="ap"><use transform="matrix(0.05,0,0,0.05,0,0)" xlink:href="#aO"/><use transform="matrix(0.05,0,0,0.05,10,0)" xlink:href="#aw"/><use transform="matrix(0.05,0,0,0.05,15.949999999999998,0)" xlink:href="#av"/><use transform="matrix(0.05,0,0,0.05,25.950000000000003,0)" xlink:href="#aF"/><use transform="matrix(0.05,0,0,0.05,29.899999999999995,0)" xlink:href="#az"/></g><g id="aq"><use transform="matrix(0.05,0,0,0.05,0,0)" xlink:href="#aK"/><use transform="matrix(0.05,0,0,0.05,9,0)" xlink:href="#aG"/><use transform="matrix(0.05,0,0,0.05,18,0)" xlink:href="#aB"/><use transform="matrix(0.05,0,0,0.05,28,0)" xlink:href="#aw"/><use transform="matrix(0.05,0,0,0.05,33.95,0)" xlink:href="#aH"/><use transform="matrix(0.05,0,0,0.05,43.95,0)" xlink:href="#aP"/></g><g id="ar"><use transform="matrix(0.05,0,0,0.05,0,0)" xlink:href="#aA"/><use transform="matrix(0.05,0,0,0.05,12.950000000000001,0)" xlink:href="#aH"/><use transform="matrix(0.05,0,0,0.05,22.950000000000003,0)" xlink:href="#au"/><use transform="matrix(0.05,0,0,0.05,27.950000000000003,0)" xlink:href="#ay"/><use transform="matrix(0.05,0,0,0.05,37.95,0)" xlink:href="#aw"/><use transform="matrix(0.05,0,0,0.05,43.900000000000006,0)" xlink:href="#az"/></g><g id="as"><use transform="matrix(0.05,0,0,0.05,0,0)" xlink:href="#av"/><use transform="matrix(0.05,0,0,0.05,10,0)" xlink:href="#aC"/><use transform="matrix(0.05,0,0,0.05,13.949999999999998,0)" xlink:href="#aC"/></g></defs></g></svg>